<mxfile host="Electron" modified="2024-08-08T13:11:31.398Z" agent="Mozilla/5.0 (Macintosh; Intel Mac OS X 10_15_7) AppleWebKit/537.36 (KHTML, like Gecko) draw.io/22.0.2 Chrome/114.0.5735.289 Electron/25.8.4 Safari/537.36" etag="PRaB67WSmedXgN71DYGq" version="22.0.2" type="device">
  <diagram name="Seite-1" id="08PBDr6DPR8OOM3q4Rxe">
    <mxGraphModel dx="899" dy="638" grid="1" gridSize="10" guides="1" tooltips="1" connect="1" arrows="1" fold="1" page="1" pageScale="1" pageWidth="1600" pageHeight="900" math="0" shadow="0">
      <root>
        <mxCell id="0" />
        <mxCell id="1" parent="0" />
        <mxCell id="Wrwnwwh73Q7GJjXny8ky-14" value="tracing-test-app" style="rounded=0;whiteSpace=wrap;html=1;fillColor=#f5f5f5;fontColor=#333333;strokeColor=#666666;fontFamily=Comic Sans MS;fontSize=10;verticalAlign=top;" vertex="1" parent="1">
          <mxGeometry x="510" y="90" width="670" height="380" as="geometry" />
        </mxCell>
        <mxCell id="Wrwnwwh73Q7GJjXny8ky-5" style="rounded=0;orthogonalLoop=1;jettySize=auto;html=1;endArrow=none;endFill=0;entryX=0;entryY=0.5;entryDx=0;entryDy=0;entryPerimeter=0;" edge="1" parent="1" source="3R6ZXyvc0Hjg0l56RHqy-1" target="Wrwnwwh73Q7GJjXny8ky-12">
          <mxGeometry relative="1" as="geometry">
            <mxPoint x="560" y="260" as="targetPoint" />
          </mxGeometry>
        </mxCell>
        <mxCell id="3R6ZXyvc0Hjg0l56RHqy-1" value="Service B" style="rounded=0;whiteSpace=wrap;html=1;fontFamily=Comic Sans MS;fontSize=14;" parent="1" vertex="1">
          <mxGeometry x="600" y="230" width="160" height="60" as="geometry" />
        </mxCell>
        <mxCell id="Wrwnwwh73Q7GJjXny8ky-6" style="rounded=0;orthogonalLoop=1;jettySize=auto;html=1;endArrow=none;endFill=0;entryX=0;entryY=0.5;entryDx=0;entryDy=0;entryPerimeter=0;" edge="1" parent="1" source="3R6ZXyvc0Hjg0l56RHqy-2" target="Wrwnwwh73Q7GJjXny8ky-9">
          <mxGeometry relative="1" as="geometry">
            <mxPoint x="560" y="350" as="targetPoint" />
          </mxGeometry>
        </mxCell>
        <mxCell id="3R6ZXyvc0Hjg0l56RHqy-2" value="Service A" style="rounded=0;whiteSpace=wrap;html=1;fontFamily=Comic Sans MS;fontSize=14;" parent="1" vertex="1">
          <mxGeometry x="600" y="320" width="160" height="60" as="geometry" />
        </mxCell>
        <mxCell id="Wrwnwwh73Q7GJjXny8ky-4" style="edgeStyle=orthogonalEdgeStyle;rounded=0;orthogonalLoop=1;jettySize=auto;html=1;endArrow=circle;endFill=0;" edge="1" parent="1" source="Wrwnwwh73Q7GJjXny8ky-2">
          <mxGeometry relative="1" as="geometry">
            <mxPoint x="560" y="170" as="targetPoint" />
          </mxGeometry>
        </mxCell>
        <mxCell id="Wrwnwwh73Q7GJjXny8ky-7" style="edgeStyle=orthogonalEdgeStyle;rounded=0;orthogonalLoop=1;jettySize=auto;html=1;entryX=0;entryY=0.5;entryDx=0;entryDy=0;" edge="1" parent="1" source="Wrwnwwh73Q7GJjXny8ky-2" target="Wrwnwwh73Q7GJjXny8ky-3">
          <mxGeometry relative="1" as="geometry" />
        </mxCell>
        <mxCell id="Wrwnwwh73Q7GJjXny8ky-2" value="BusinessTransaction" style="rounded=0;whiteSpace=wrap;html=1;fontFamily=Comic Sans MS;fontSize=14;" vertex="1" parent="1">
          <mxGeometry x="600" y="140" width="160" height="60" as="geometry" />
        </mxCell>
        <mxCell id="Wrwnwwh73Q7GJjXny8ky-3" value="ServiceOrchestrationRoute" style="rounded=0;whiteSpace=wrap;html=1;fontFamily=Comic Sans MS;fontSize=14;" vertex="1" parent="1">
          <mxGeometry x="860" y="200" width="210" height="60" as="geometry" />
        </mxCell>
        <mxCell id="Wrwnwwh73Q7GJjXny8ky-9" value="" style="shape=providedRequiredInterface;html=1;verticalLabelPosition=bottom;sketch=0;rotation=-180;" vertex="1" parent="1">
          <mxGeometry x="560" y="340" width="20" height="20" as="geometry" />
        </mxCell>
        <mxCell id="Wrwnwwh73Q7GJjXny8ky-10" style="edgeStyle=orthogonalEdgeStyle;rounded=0;orthogonalLoop=1;jettySize=auto;html=1;entryX=1;entryY=0.5;entryDx=0;entryDy=0;entryPerimeter=0;exitX=1;exitY=0.5;exitDx=0;exitDy=0;" edge="1" parent="1" source="Wrwnwwh73Q7GJjXny8ky-3" target="Wrwnwwh73Q7GJjXny8ky-9">
          <mxGeometry relative="1" as="geometry">
            <Array as="points">
              <mxPoint x="1150" y="230" />
              <mxPoint x="1150" y="440" />
              <mxPoint x="540" y="440" />
              <mxPoint x="540" y="350" />
            </Array>
          </mxGeometry>
        </mxCell>
        <mxCell id="Wrwnwwh73Q7GJjXny8ky-12" value="" style="shape=providedRequiredInterface;html=1;verticalLabelPosition=bottom;sketch=0;rotation=-180;" vertex="1" parent="1">
          <mxGeometry x="560" y="250" width="20" height="20" as="geometry" />
        </mxCell>
        <mxCell id="Wrwnwwh73Q7GJjXny8ky-13" style="edgeStyle=orthogonalEdgeStyle;rounded=0;orthogonalLoop=1;jettySize=auto;html=1;entryX=1;entryY=0.5;entryDx=0;entryDy=0;entryPerimeter=0;" edge="1" parent="1" source="Wrwnwwh73Q7GJjXny8ky-3" target="Wrwnwwh73Q7GJjXny8ky-12">
          <mxGeometry relative="1" as="geometry">
            <Array as="points">
              <mxPoint x="1100" y="230" />
              <mxPoint x="1100" y="310" />
              <mxPoint x="540" y="310" />
              <mxPoint x="540" y="260" />
            </Array>
          </mxGeometry>
        </mxCell>
      </root>
    </mxGraphModel>
  </diagram>
</mxfile>
